<svg width="485" height="100" viewBox="0 0 485 100" xmlns="http://www.w3.org/2000/svg"><path d="M480.35 94.315V12.663l-50 10.22V84.08l50 10.235zm4.65 5.633l-59.298-12.136V19.11L485 6.972v92.975z" fill="#777"/><path d="M437.686 70.68l17.77 10.053 17.767-6.665V33.06l-17.768-6.665-17.77 10.054v34.23zm16.584-22.924v28.1l-14.22-7.785-.014-26.06 14.234 5.75zm7.107-6.81l-5.922 3.153-15.42-5.95 5.933-3.16 15.41 5.95zm-4.738 6.74l4.73-2.438v10.495l4.74-2.3v-10.74l4.75-2.66-.02 30.483-14.22 5.598v-28.44zm-1.19-18.096l15.41 5.948-4.76 2.762-15.41-5.952 4.75-2.758zm-92.63-17.682c-3.27 0-5.92 2.653-5.92 5.928s2.65 5.928 5.92 5.928c3.26 0 5.91-2.653 5.91-5.928s-2.65-5.928-5.92-5.928zm29.59 17.784L380.57 41.55v-5.93c0-2.836-1.99-5.207-4.646-5.788 2.885-3.163 4.646-7.372 4.646-11.996 0-9.823-7.948-17.784-17.754-17.784-9.352 0-17.015 7.24-17.705 16.433-3.14-2.843-7.31-4.577-11.88-4.577-9.8 0-17.75 7.962-17.75 17.784 0 9.823 7.95 17.785 17.76 17.785h-5.92v11.856h5.92V71.19c0 3.275 2.65 5.928 5.92 5.928h35.51c3.27 0 5.92-2.653 5.92-5.928v-5.93l11.84 11.86h5.92V29.692h-5.91zm-59.18-5.928c-3.27 0-5.92 2.653-5.92 5.928 0 3.276 2.65 5.93 5.92 5.93v5.927c-6.54 0-11.84-5.31-11.84-11.86s5.3-11.86 11.83-11.86 11.83 5.31 11.83 11.85h-5.92c0-3.28-2.65-5.93-5.92-5.93zm29.59 35.57h-11.84V47.476h11.83v11.856zm11.83-10.117l-6.79-6.8c-.54-.536-1.28-.868-2.1-.868h-17.75c-1.64 0-2.96 1.32-2.96 2.96v17.78c0 .77.29 1.47.77 2 .05.05 3.62 3.63 6.88 6.89h-10.6c-1.64 0-2.96-1.33-2.96-2.97V38.58c0-1.636 1.32-2.964 2.96-2.964h29.59c1.63 0 2.96 1.33 2.96 2.965v10.64zm-11.83-19.525c-6.54 0-11.84-5.308-11.84-11.856s5.3-11.856 11.83-11.856 11.83 5.308 11.83 11.856-5.3 11.856-11.84 11.856zm29.59 29.64l-5.92-5.927.01-11.865 5.91-5.92v23.713z"/><path d="M19.327 63.096c2.808 0 4.875-.606 6.202-1.817 1.32-1.22 1.99-3.09 1.99-5.63V45.56c0-2.54-.5-4.414-1.5-5.625-1-1.212-2.58-1.818-4.74-1.818-1.77 0-3.41.48-4.91 1.443-1.5.96-2.98 2.423-4.45 4.384v16.962c1.07.73 2.22 1.28 3.43 1.644 1.21.365 2.53.548 3.95.548zm.058 11.423v5.01H0v-5.02h6.346V38.4H0v-5.02h11.942v5.366h1.616c.846-1.884 2.096-3.345 3.75-4.384 1.654-1.038 3.5-1.557 5.538-1.557 3.23 0 5.75 1.132 7.558 3.402 1.808 2.27 2.71 5.402 2.71 9.402v10.21c0 3.81-1.2 6.8-3.604 8.97-2.404 2.17-5.74 3.26-10.01 3.26-1.423-.04-2.788-.18-4.096-.43-1.308-.25-2.462-.59-3.462-1.01v7.9h7.443zM43.212 68v-5.02h6.346V38.405h-6.346v-5.02h11.942v5.366h1.615c.73-2.07 1.76-3.58 3.11-4.53 1.34-.94 2.82-1.41 4.44-1.41 2.11 0 3.83.81 5.16 2.43 1.32 1.62 1.99 3.91 1.99 6.87v5.66h-5.3v-4.85c0-1.54-.33-2.72-.98-3.54-.66-.83-1.52-1.24-2.6-1.24-1.43 0-2.77.44-4.04 1.33s-2.41 2.16-3.41 3.81V63h8.14v5H43.21zm52.384.577c-4.077 0-7.327-1.096-9.75-3.29-2.423-2.19-3.634-5.46-3.634-9.806v-9.34c0-4.42 1.21-7.75 3.634-9.98 2.423-2.23 5.692-3.34 9.808-3.34 4.038 0 7.27 1.12 9.692 3.35 2.423 2.23 3.635 5.56 3.635 9.98v9.35c0 4.35-1.21 7.62-3.63 9.81-2.42 2.2-5.67 3.29-9.75 3.29zm0-5.02c2.577 0 4.52-.634 5.827-1.903 1.308-1.27 1.962-3.308 1.962-6.116v-9.403c0-2.847-.654-4.943-1.962-6.29-1.308-1.345-3.25-2.018-5.827-2.018-2.615 0-4.567.673-5.856 2.02-1.288 1.345-1.932 3.44-1.932 6.288v9.403c0 2.808.644 4.847 1.932 6.116 1.29 1.27 3.24 1.904 5.856 1.904zM122.77 80c-1.078 0-2.183-.115-3.318-.346-1.135-.23-2.298-.54-3.49-.923l1.096-5.13c1 .39 1.952.69 2.855.93.904.23 1.78.35 2.625.35 1.654 0 2.98-.52 3.98-1.55 1-1.04 1.5-2.77 1.5-5.19V38.41h-10.5v-5.02h16.097v35.19c0 3.884-1.038 6.76-3.115 8.624-2.077 1.865-4.654 2.798-7.73 2.798zm8.076-53.02c-1.384 0-2.5-.23-3.346-.692-.846-.46-1.27-1.307-1.27-2.538v-.404c0-1.27.424-2.144 1.27-2.625.846-.48 1.962-.72 3.346-.72 1.385 0 2.5.24 3.346.72.846.49 1.27 1.36 1.27 2.63v.41c0 1.23-.433 2.08-1.3 2.54-.864.46-1.97.69-3.316.69zm43.5 33.462c-.96 2.885-2.52 4.962-4.673 6.23-2.154 1.27-5.077 1.905-8.77 1.905-4.23 0-7.528-1.096-9.893-3.29-2.366-2.19-3.548-5.345-3.548-9.46V45.73c0-4.23 1.22-7.442 3.663-9.634 2.442-2.192 5.702-3.288 9.78-3.288 4.037 0 7.268 1.125 9.69 3.375 2.424 2.25 3.636 5.567 3.636 9.952v5.653h-21.17v4.097c0 2.807.65 4.827 1.94 6.057 1.29 1.23 3.26 1.846 5.92 1.846 2.54 0 4.38-.384 5.51-1.153 1.14-.77 2.01-2.04 2.63-3.808l5.31 1.615zm-21.288-14.71v1.787h15.577v-1.27c0-3-.654-5.2-1.962-6.58-1.308-1.39-3.25-2.08-5.827-2.08-2.615 0-4.567.66-5.856 1.99-1.288 1.32-1.932 3.37-1.932 6.14zm46.384 22.845c-4.807 0-8.355-1.115-10.644-3.346-2.288-2.23-3.433-5.34-3.433-9.34V45.73c0-4.345 1.28-7.586 3.837-9.72 2.558-2.135 5.952-3.202 10.183-3.202 4.23 0 7.432.96 9.605 2.884 2.173 1.923 3.414 4.904 3.722 8.943l-5.48.288c-.155-2.692-.847-4.548-2.078-5.567-1.23-1.02-3.154-1.53-5.77-1.53-2.77 0-4.865.607-6.288 1.818-1.423 1.212-2.134 3.24-2.134 6.087v10.16c0 2.73.71 4.7 2.134 5.89 1.423 1.2 3.54 1.79 6.346 1.79 2.577 0 4.48-.41 5.712-1.24 1.23-.83 1.923-2.39 2.077-4.7l5.49.29c-.27 3.69-1.49 6.4-3.66 8.11-2.17 1.71-5.37 2.57-9.6 2.57zm39.808-.058c-3.5 0-6.163-.98-7.99-2.92-1.827-1.95-2.74-4.8-2.74-8.57V38.4h-6.347v-5.02h6.346V21.847h5.59v11.54h11.59v5.018h-11.59v18.808c0 2.115.51 3.682 1.53 4.7 1.02 1.02 2.35 1.53 4.01 1.53.77 0 1.62-.096 2.56-.288.94-.192 1.91-.48 2.91-.866l1.04 4.9c-1.15.46-2.31.8-3.49 1.01-1.17.21-2.32.31-3.43.31zm15.577-.52v-5.02h6.346V38.4h-6.346v-5.02h11.942v5.366h1.61c.73-2.077 1.77-3.587 3.11-4.53 1.34-.94 2.82-1.41 4.44-1.41 2.11 0 3.84.805 5.16 2.42s1.99 3.906 1.99 6.867v5.654h-5.31V42.9c0-1.54-.33-2.72-.98-3.547-.66-.827-1.52-1.24-2.6-1.24-1.43 0-2.77.442-4.04 1.326-1.27.88-2.41 2.15-3.41 3.8v19.73h8.13V68H254.8z" fill="#0A7AAD"/></svg>